<svg width="111" height="111" viewBox="0 0 111 111" fill="none" xmlns="http://www.w3.org/2000/svg">
<circle cx="55.5" cy="55.5" r="55.5" fill="#202020"/>
<path fill-rule="evenodd" clip-rule="evenodd" d="M76.7728 33.8727C74.2758 31.3758 70.2275 31.3758 67.7305 33.8727L55.3238 46.2794L43.5647 34.5203C41.0671 32.0227 37.0178 32.0227 34.5202 34.5203C32.0226 37.0179 32.0226 41.0672 34.5202 43.5648L46.2793 55.3239L33.8727 67.7305C31.3758 70.2275 31.3758 74.2758 33.8727 76.7728C36.3697 79.2697 40.418 79.2697 42.915 76.7728L55.3215 64.3662L68.3757 77.4203C70.8733 79.9179 74.9227 79.9179 77.4202 77.4203C79.9178 74.9228 79.9178 70.8734 77.4202 68.3758L64.3661 55.3216L76.7728 42.915C79.2697 40.418 79.2697 36.3697 76.7728 33.8727Z" fill="white"/>
</svg>
