<svg width="44" height="44" viewBox="0 0 44 44" fill="none" xmlns="http://www.w3.org/2000/svg">
<circle cx="22" cy="22" r="22" fill="#8643F9"/>
<path d="M39 18.4L35.3571 10L26.8571 4L22 5.92L17.1429 4L8.64286 10L5 18.4L7.42857 19.6L5 23.2L9.85714 31.6L12.2857 30.4V34L22 40L31.7143 34V30.4L34.1429 31.6L39 23.2L36.5714 19.6L39 18.4ZM22.68 34H21.3321L17.2886 30.4H26.7357L22.6921 34H22.68ZM28.8364 23.2L27.4764 28H16.5479L15.1879 23.2L11.0836 18.4L17.9079 12.4L22.0121 14.8L26.1164 12.4L32.9407 18.4L28.8364 23.2ZM19.9843 19.6L18.6364 17.2H15.9407V18.4L18.6364 20.8L19.9843 19.6ZM24.0279 19.6L25.3757 20.8L28.0714 18.4V17.2H25.3757L24.0279 19.6ZM21.3321 26.8H22.68L25.3757 23.2H18.6243L21.32 26.8H21.3321Z" fill="white"/>
</svg>
