<svg width="52" height="59" viewBox="0 0 52 59" fill="none" xmlns="http://www.w3.org/2000/svg">
<g clip-path="url(#clip0_1070_423)">
<path d="M26 19.9102V33.6758H12.2826C12.2826 41.2786 18.4238 47.4414 26 47.4414C33.5762 47.4414 39.7174 41.2786 39.7174 33.6758C39.7174 26.073 33.5762 19.9102 26 19.9102Z" fill="url(#paint0_linear_1070_423)"/>
<path d="M26 19.9102V33.6758H12.2826C12.2826 41.2786 18.4238 47.4414 26 47.4414C33.5762 47.4414 39.7174 41.2786 39.7174 33.6758C39.7174 26.073 33.5762 19.9102 26 19.9102Z" fill="white"/>
<path d="M52 15.4176L49.9912 13.4017L47.9823 11.3282L43.3333 15.9935C39.5452 12.1922 34.4945 9.6579 28.8698 9.02433V6.25968H34.0927V0.5H17.9647V6.25968H23.1302V9.02433C17.5055 9.6579 12.5121 12.1922 8.66667 15.9935L4.01766 11.3282L2.00883 13.4017L0 15.4176L5.05077 20.4861C2.64018 24.2875 1.26269 28.8376 1.26269 33.6758C1.26269 47.3262 12.3974 58.5 26 58.5C39.6026 58.5 50.7373 47.3262 50.7373 33.6758C50.7373 28.8376 49.3598 24.2875 46.9492 20.4861L52 15.4176ZM26 52.7403C15.5541 52.7403 7.00221 44.1584 7.00221 33.6758C7.00221 23.1931 15.5541 14.6112 26 14.6112C36.4459 14.6112 44.9978 23.1356 44.9978 33.6758C44.9978 44.216 36.4459 52.7403 26 52.7403Z" fill="url(#paint1_linear_1070_423)"/>
<path d="M52 15.4176L49.9912 13.4017L47.9823 11.3282L43.3333 15.9935C39.5452 12.1922 34.4945 9.6579 28.8698 9.02433V6.25968H34.0927V0.5H17.9647V6.25968H23.1302V9.02433C17.5055 9.6579 12.5121 12.1922 8.66667 15.9935L4.01766 11.3282L2.00883 13.4017L0 15.4176L5.05077 20.4861C2.64018 24.2875 1.26269 28.8376 1.26269 33.6758C1.26269 47.3262 12.3974 58.5 26 58.5C39.6026 58.5 50.7373 47.3262 50.7373 33.6758C50.7373 28.8376 49.3598 24.2875 46.9492 20.4861L52 15.4176ZM26 52.7403C15.5541 52.7403 7.00221 44.1584 7.00221 33.6758C7.00221 23.1931 15.5541 14.6112 26 14.6112C36.4459 14.6112 44.9978 23.1356 44.9978 33.6758C44.9978 44.216 36.4459 52.7403 26 52.7403Z" fill="white"/>
</g>
<defs>
<linearGradient id="paint0_linear_1070_423" x1="26" y1="19.9102" x2="17.2289" y2="44.4086" gradientUnits="userSpaceOnUse">
<stop stop-color="#7B3EFF"/>
<stop offset="1" stop-color="#BD5ED4"/>
</linearGradient>
<linearGradient id="paint1_linear_1070_423" x1="26" y1="0.499999" x2="5.99697" y2="50.7663" gradientUnits="userSpaceOnUse">
<stop stop-color="#7B3EFF"/>
<stop offset="1" stop-color="#BD5ED4"/>
</linearGradient>
<clipPath id="clip0_1070_423">
<rect width="52" height="58" fill="white" transform="translate(0 0.5)"/>
</clipPath>
</defs>
</svg>
