<svg width="62" height="54" viewBox="0 0 62 54" fill="none" xmlns="http://www.w3.org/2000/svg">
<path d="M51.2671 40.9354C45.4356 47.9016 38.4195 53.1083 30.5217 54C22.6292 53.0963 15.6347 47.9016 9.79248 40.9354C1.67824 31.0546 -1.68105 19.2049 0.872227 11.6941C3.03062 4.90746 9.25153 0 16.5922 0C22.1045 0 26.9839 2.75895 29.9861 7.00809C30.262 7.40308 30.803 7.40308 31.0788 7.00809C34.0811 2.75895 38.9605 0 44.4728 0C51.8134 0 58.0344 4.90746 60.1927 11.6941C62.7514 19.2049 59.3813 31.0546 51.2671 40.9354Z" fill="url(#paint0_linear_965_798)"/>
<path d="M51.2671 40.9354C45.4356 47.9016 38.4195 53.1083 30.5217 54C22.6292 53.0963 15.6347 47.9016 9.79248 40.9354C1.67824 31.0546 -1.68105 19.2049 0.872227 11.6941C3.03062 4.90746 9.25153 0 16.5922 0C22.1045 0 26.9839 2.75895 29.9861 7.00809C30.262 7.40308 30.803 7.40308 31.0788 7.00809C34.0811 2.75895 38.9605 0 44.4728 0C51.8134 0 58.0344 4.90746 60.1927 11.6941C62.7514 19.2049 59.3813 31.0546 51.2671 40.9354Z" fill="#00ECA4"/>
<defs>
<linearGradient id="paint0_linear_965_798" x1="30.5332" y1="-5.11322e-07" x2="14.9647" y2="49.2937" gradientUnits="userSpaceOnUse">
<stop stop-color="#7B3EFF"/>
<stop offset="1" stop-color="#BD5ED4"/>
</linearGradient>
</defs>
</svg>
