<svg width="29" height="29" viewBox="0 0 29 29" fill="none" xmlns="http://www.w3.org/2000/svg">
<path fill-rule="evenodd" clip-rule="evenodd" d="M18 2C18 0.895431 17.1046 0 16 0H13C11.8954 0 11 0.89543 11 2V9C11 10.1046 10.1046 11 9 11H2C0.895431 11 0 11.8954 0 13V16C0 17.1046 0.895431 18 2 18H9C10.1046 18 11 18.8954 11 20V27C11 28.1046 11.8954 29 13 29H16C17.1046 29 18 28.1046 18 27V20C18 18.8954 18.8954 18 20 18H27C28.1046 18 29 17.1046 29 16V13C29 11.8954 28.1046 11 27 11H20C18.8954 11 18 10.1046 18 9V2Z" fill="#C4C4C4"/>
</svg>
