<svg width="91" height="98" viewBox="0 0 91 98" fill="none" xmlns="http://www.w3.org/2000/svg">
<path d="M43 0C19.2472 0 0 19.2472 0 43C0 66.7528 19.2472 86 43 86C66.7528 86 86 66.7528 86 43C86 19.2472 66.7453 0 43 0Z" fill="url(#paint0_linear_1086_814)"/>
<path fill-rule="evenodd" clip-rule="evenodd" d="M44.3935 8.95837C52.2901 14.8657 68.0833 30.4973 68.0833 45.7654C68.0833 55.9896 63.2842 62.6927 57.3282 66.7131C57.1298 57.5321 51.1919 50.1667 43.8958 50.1667C36.4745 50.1667 30.4583 57.7872 30.4583 67.1875C30.4583 67.9213 30.495 68.6442 30.5661 69.3534C23.7821 66.3229 17.9167 59.9895 17.9167 48.4919C17.9167 34.3144 29.0648 26.2259 34.6389 23.9538C34.1744 27.5891 34.6389 34.587 40.213 33.4964C45.787 32.4058 45.3225 16.6833 44.3935 8.95837Z" fill="white"/>
<mask id="path-3-outside-1_1086_814" maskUnits="userSpaceOnUse" x="45" y="52" width="46" height="46" fill="black">
<rect fill="white" x="45" y="52" width="46" height="46"/>
<path fill-rule="evenodd" clip-rule="evenodd" d="M65.1724 57C62.9633 57 61.1724 58.7909 61.1724 61V68.1724H54C51.7909 68.1724 50 69.9633 50 72.1724V77.8276C50 80.0367 51.7909 81.8276 54 81.8276H61.1724V89C61.1724 91.2091 62.9633 93 65.1724 93H70.8276C73.0367 93 74.8276 91.2091 74.8276 89V81.8276H82C84.2091 81.8276 86 80.0367 86 77.8276V72.1724C86 69.9633 84.2091 68.1724 82 68.1724H74.8276V61C74.8276 58.7909 73.0367 57 70.8276 57H65.1724Z"/>
</mask>
<path fill-rule="evenodd" clip-rule="evenodd" d="M65.1724 57C62.9633 57 61.1724 58.7909 61.1724 61V68.1724H54C51.7909 68.1724 50 69.9633 50 72.1724V77.8276C50 80.0367 51.7909 81.8276 54 81.8276H61.1724V89C61.1724 91.2091 62.9633 93 65.1724 93H70.8276C73.0367 93 74.8276 91.2091 74.8276 89V81.8276H82C84.2091 81.8276 86 80.0367 86 77.8276V72.1724C86 69.9633 84.2091 68.1724 82 68.1724H74.8276V61C74.8276 58.7909 73.0367 57 70.8276 57H65.1724Z" fill="url(#paint1_linear_1086_814)"/>
<path d="M61.1724 68.1724V73.1724H66.1724V68.1724H61.1724ZM54 68.1724L54 73.1724H54V68.1724ZM61.1724 81.8276H66.1724V76.8276H61.1724V81.8276ZM74.8276 81.8276V76.8276H69.8276V81.8276H74.8276ZM74.8276 68.1724H69.8276V73.1724H74.8276V68.1724ZM66.1724 61C66.1724 61.5523 65.7247 62 65.1724 62V52C60.2019 52 56.1724 56.0294 56.1724 61H66.1724ZM66.1724 68.1724V61H56.1724V68.1724H66.1724ZM54 73.1724H61.1724V63.1724H54V73.1724ZM55 72.1724C55 72.7247 54.5523 73.1724 54 73.1724L54 63.1724C49.0294 63.1724 45 67.2018 45 72.1724H55ZM55 77.8276V72.1724H45V77.8276H55ZM54 76.8276C54.5523 76.8276 55 77.2753 55 77.8276H45C45 82.7981 49.0294 86.8276 54 86.8276V76.8276ZM61.1724 76.8276H54V86.8276H61.1724V76.8276ZM66.1724 89V81.8276H56.1724V89H66.1724ZM65.1724 88C65.7247 88 66.1724 88.4477 66.1724 89H56.1724C56.1724 93.9706 60.2018 98 65.1724 98V88ZM70.8276 88H65.1724V98H70.8276V88ZM69.8276 89C69.8276 88.4477 70.2753 88 70.8276 88V98C75.7981 98 79.8276 93.9706 79.8276 89H69.8276ZM69.8276 81.8276V89H79.8276V81.8276H69.8276ZM82 76.8276H74.8276V86.8276H82V76.8276ZM81 77.8276C81 77.2753 81.4477 76.8276 82 76.8276V86.8276C86.9706 86.8276 91 82.7982 91 77.8276H81ZM81 72.1724V77.8276H91V72.1724H81ZM82 73.1724C81.4477 73.1724 81 72.7247 81 72.1724H91C91 67.2019 86.9706 63.1724 82 63.1724V73.1724ZM74.8276 73.1724H82V63.1724H74.8276V73.1724ZM69.8276 61V68.1724H79.8276V61H69.8276ZM70.8276 62C70.2753 62 69.8276 61.5523 69.8276 61H79.8276C79.8276 56.0294 75.7982 52 70.8276 52V62ZM65.1724 62H70.8276V52H65.1724V62Z" fill="white" mask="url(#path-3-outside-1_1086_814)"/>
<defs>
<linearGradient id="paint0_linear_1086_814" x1="43" y1="-8.14327e-07" x2="15.6757" y2="76.587" gradientUnits="userSpaceOnUse">
<stop stop-color="#7B3EFF"/>
<stop offset="1" stop-color="#BD5ED4"/>
</linearGradient>
<linearGradient id="paint1_linear_1086_814" x1="68" y1="57" x2="56.5619" y2="89.0597" gradientUnits="userSpaceOnUse">
<stop stop-color="#7B3EFF"/>
<stop offset="1" stop-color="#BD5ED4"/>
</linearGradient>
</defs>
</svg>
