<svg width="44" height="42" viewBox="0 0 44 42" fill="none" xmlns="http://www.w3.org/2000/svg">
<path fill-rule="evenodd" clip-rule="evenodd" d="M0 3C0 1.34315 1.34315 0 3 0H41C42.6569 0 44 1.34315 44 3V5.75C44 7.40685 42.6569 8.75 41 8.75H3C1.34315 8.75 0 7.40685 0 5.75V3ZM0 19.625C0 17.9681 1.34315 16.625 3 16.625H41C42.6569 16.625 44 17.9681 44 19.625V22.375C44 24.0319 42.6569 25.375 41 25.375H3C1.34315 25.375 0 24.0319 0 22.375V19.625ZM3 33.25C1.34315 33.25 0 34.5931 0 36.25V39C0 40.6569 1.34315 42 3 42H41C42.6569 42 44 40.6569 44 39V36.25C44 34.5931 42.6569 33.25 41 33.25H3Z" fill="#2A2A2A"/>
</svg>
