<svg width="61" height="54" viewBox="0 0 61 54" fill="none" xmlns="http://www.w3.org/2000/svg">
<path d="M51.2338 40.9354C45.4024 47.9016 38.3863 53.1083 30.4884 54C22.596 53.0963 15.6015 47.9016 9.75925 40.9354C1.64501 31.0546 -1.71429 19.2049 0.838994 11.6941C2.99738 4.90746 9.2183 0 16.559 0C22.0713 0 26.9506 2.75895 29.9529 7.00809C30.2288 7.40308 30.7697 7.40308 31.0456 7.00809C34.0479 2.75895 38.9272 0 44.4395 0C51.7802 0 58.0011 4.90746 60.1595 11.6941C62.7182 19.2049 59.3481 31.0546 51.2338 40.9354Z" fill="url(#paint0_linear_966_149)"/>
<path d="M51.2338 40.9354C45.4024 47.9016 38.3863 53.1083 30.4884 54C22.596 53.0963 15.6015 47.9016 9.75925 40.9354C1.64501 31.0546 -1.71429 19.2049 0.838994 11.6941C2.99738 4.90746 9.2183 0 16.559 0C22.0713 0 26.9506 2.75895 29.9529 7.00809C30.2288 7.40308 30.7697 7.40308 31.0456 7.00809C34.0479 2.75895 38.9272 0 44.4395 0C51.7802 0 58.0011 4.90746 60.1595 11.6941C62.7182 19.2049 59.3481 31.0546 51.2338 40.9354Z" fill="#BFC6E8"/>
<defs>
<linearGradient id="paint0_linear_966_149" x1="30.5" y1="-5.11322e-07" x2="14.9314" y2="49.2937" gradientUnits="userSpaceOnUse">
<stop stop-color="#7B3EFF"/>
<stop offset="1" stop-color="#BD5ED4"/>
</linearGradient>
</defs>
</svg>
