<svg width="59" height="61" viewBox="0 0 59 61" fill="none" xmlns="http://www.w3.org/2000/svg">
<path d="M24.543 1.83149L1.73003 25.301C0.630435 26.4383 0 27.9596 0 29.5547V54.9148C0 58.2676 2.69767 61 6.04044 61H13.9282C17.2563 61 19.9687 58.2823 19.9687 54.9148V46.8504C19.9687 43.4976 22.6663 40.7652 26.0091 40.7652H32.0056C35.3337 40.7652 38.046 43.4828 38.046 46.8504V54.9148C38.046 58.2676 40.7437 61 44.0864 61H51.9742C55.3023 61 58.0147 58.2823 58.0147 54.9148V29.5843C58.0147 27.9744 57.3842 26.4383 56.27 25.301L33.1491 1.80195C30.774 -0.605552 26.9034 -0.605552 24.543 1.83149Z" fill="url(#paint0_linear_1014_379)"/>
<defs>
<linearGradient id="paint0_linear_1014_379" x1="29.0073" y1="-5.77605e-07" x2="8.86886" y2="53.6835" gradientUnits="userSpaceOnUse">
<stop stop-color="#7B3EFF"/>
<stop offset="1" stop-color="#BD5ED4"/>
</linearGradient>
</defs>
</svg>
