<svg width="59" height="72" viewBox="0 0 59 72" fill="none" xmlns="http://www.w3.org/2000/svg">
<path fill-rule="evenodd" clip-rule="evenodd" d="M31.1389 0C40.4259 6.94746 59 25.3315 59 43.288C59 55.3125 53.3559 63.1959 46.3511 67.9241C46.1178 57.1266 39.1343 48.4643 30.5536 48.4643C21.8255 48.4643 14.75 57.4266 14.75 68.4821C14.75 69.3451 14.7931 70.1952 14.8767 71.0294C6.89827 67.4652 0 60.0166 0 46.4946C0 29.8207 13.1111 20.308 19.6667 17.6359C19.1204 21.9112 19.6667 30.1413 26.2222 28.8587C32.7778 27.5761 32.2315 9.08514 31.1389 0Z" fill="white"/>
<path fill-rule="evenodd" clip-rule="evenodd" d="M31.1389 0C40.4259 6.94746 59 25.3315 59 43.288C59 55.3125 53.3559 63.1959 46.3511 67.9241C46.1178 57.1266 39.1343 48.4643 30.5536 48.4643C21.8255 48.4643 14.75 57.4266 14.75 68.4821C14.75 69.3451 14.7931 70.1952 14.8767 71.0294C6.89827 67.4652 0 60.0166 0 46.4946C0 29.8207 13.1111 20.308 19.6667 17.6359C19.1204 21.9112 19.6667 30.1413 26.2222 28.8587C32.7778 27.5761 32.2315 9.08514 31.1389 0Z" fill="#BFC6E8"/>
</svg>
