<svg width="51" height="63" viewBox="0 0 51 63" fill="none" xmlns="http://www.w3.org/2000/svg">
<path d="M38.7478 30.0397C41.7577 26.8437 43.6122 22.5823 43.6122 17.8708C43.6122 7.99758 35.51 0 25.5076 0C15.5052 0 7.38778 7.99758 7.38778 17.8708C7.38778 22.5673 9.24233 26.8437 12.2522 30.0397C5.22921 31.7352 0 37.9622 0 45.4347V54.3025C0 58.5639 3.49627 62.015 7.81341 62.015H43.1866C47.5037 62.015 51 58.5639 51 54.3025V45.4347C51 37.9773 45.7708 31.7352 38.7478 30.0397Z" fill="url(#paint0_linear_1116_861)"/>
<defs>
<linearGradient id="paint0_linear_1116_861" x1="25.5" y1="-5.87215e-07" x2="2.76914" y2="52.3957" gradientUnits="userSpaceOnUse">
<stop stop-color="#7B3EFF"/>
<stop offset="1" stop-color="#BD5ED4"/>
</linearGradient>
</defs>
</svg>
