<svg width="60" height="60" viewBox="0 0 60 60" fill="none" xmlns="http://www.w3.org/2000/svg">
<circle cx="30" cy="30" r="30" fill="#F1F1F1"/>
<mask id="path-2-inside-1_1057_633" fill="white">
<path fill-rule="evenodd" clip-rule="evenodd" d="M22 19.5C22 15.3579 25.3579 12 29.5 12C33.6421 12 37 15.3579 37 19.5V24H38C40.7614 24 43 26.2386 43 29V40C43 42.7614 40.7614 45 38 45H21C18.2386 45 16 42.7614 16 40V29C16 26.2386 18.2386 24 21 24H22V19.5ZM29.5 17C28.1193 17 27 18.1193 27 19.5V24H32V19.5C32 18.1193 30.8807 17 29.5 17Z"/>
</mask>
<path d="M37 24H30V31H37V24ZM22 24V31H29V24H22ZM27 24H20V31H27V24ZM32 24V31H39V24H32ZM29.5 5C21.4919 5 15 11.4919 15 19.5H29C29 19.2239 29.2239 19 29.5 19V5ZM44 19.5C44 11.4919 37.5081 5 29.5 5V19C29.7761 19 30 19.2239 30 19.5H44ZM44 24V19.5H30V24H44ZM38 17H37V31H38V17ZM50 29C50 22.3726 44.6274 17 38 17V31C36.8954 31 36 30.1046 36 29H50ZM50 40V29H36V40H50ZM38 52C44.6274 52 50 46.6274 50 40H36C36 38.8954 36.8954 38 38 38V52ZM21 52H38V38H21V52ZM9 40C9 46.6274 14.3726 52 21 52V38C22.1046 38 23 38.8954 23 40H9ZM9 29V40H23V29H9ZM21 17C14.3726 17 9 22.3726 9 29H23C23 30.1046 22.1046 31 21 31V17ZM22 17H21V31H22V17ZM15 19.5V24H29V19.5H15ZM34 19.5C34 21.9853 31.9853 24 29.5 24V10C24.2533 10 20 14.2533 20 19.5H34ZM34 24V19.5H20V24H34ZM32 17H27V31H32V17ZM25 19.5V24H39V19.5H25ZM29.5 24C27.0147 24 25 21.9853 25 19.5H39C39 14.2533 34.7467 10 29.5 10V24Z" fill="#887C8C" mask="url(#path-2-inside-1_1057_633)"/>
</svg>
