<svg width="87" height="70" viewBox="0 0 87 70" fill="none" xmlns="http://www.w3.org/2000/svg">
<path d="M4.05095 28.8986L81.2058 0.349413C84.7868 -0.892135 87.9143 1.18778 86.754 6.38436L86.7607 6.37796L73.6237 65.7739C72.6501 69.9849 70.0427 71.0088 66.395 69.0249L46.3894 54.8751L36.7401 63.7964C35.6731 64.8203 34.7729 65.6843 32.7056 65.6843L34.126 46.1459L71.203 14C72.8168 12.6369 70.8429 11.8689 68.7157 13.2257L22.8962 40.9109L3.14403 34.9976C-1.14383 33.692 -1.23719 30.8825 4.05095 28.8986Z" fill="url(#paint0_linear_965_797)"/>
<path d="M4.05095 28.8986L81.2058 0.349413C84.7868 -0.892135 87.9143 1.18778 86.754 6.38436L86.7607 6.37796L73.6237 65.7739C72.6501 69.9849 70.0427 71.0088 66.395 69.0249L46.3894 54.8751L36.7401 63.7964C35.6731 64.8203 34.7729 65.6843 32.7056 65.6843L34.126 46.1459L71.203 14C72.8168 12.6369 70.8429 11.8689 68.7157 13.2257L22.8962 40.9109L3.14403 34.9976C-1.14383 33.692 -1.23719 30.8825 4.05095 28.8986Z" fill="#04A9EA"/>
<defs>
<linearGradient id="paint0_linear_965_797" x1="43.5" y1="-6.62825e-07" x2="24.8631" y2="64.9233" gradientUnits="userSpaceOnUse">
<stop stop-color="#7B3EFF"/>
<stop offset="1" stop-color="#BD5ED4"/>
</linearGradient>
</defs>
</svg>
