<svg width="48" height="48" viewBox="0 0 48 48" fill="none" xmlns="http://www.w3.org/2000/svg">
<path fill-rule="evenodd" clip-rule="evenodd" d="M44.7728 1.87271C42.2758 -0.624237 38.2275 -0.624236 35.7305 1.87271L23.3238 14.2794L11.5647 2.5203C9.06714 0.0227207 5.01776 0.0227155 2.52018 2.52029C0.022607 5.01787 0.0226074 9.06724 2.52018 11.5648L14.2793 23.3239L1.87271 35.7305C-0.624237 38.2275 -0.624236 42.2758 1.87271 44.7728C4.36966 47.2697 8.41801 47.2697 10.915 44.7728L23.3215 32.3662L36.3757 45.4203C38.8733 47.9179 42.9227 47.9179 45.4202 45.4203C47.9178 42.9228 47.9178 38.8734 45.4202 36.3758L32.3661 23.3216L44.7728 10.915C47.2697 8.41801 47.2697 4.36966 44.7728 1.87271Z" fill="#B65BDA"/>
<path fill-rule="evenodd" clip-rule="evenodd" d="M44.7728 1.87271C42.2758 -0.624237 38.2275 -0.624236 35.7305 1.87271L23.3238 14.2794L11.5647 2.5203C9.06714 0.0227207 5.01776 0.0227155 2.52018 2.52029C0.022607 5.01787 0.0226074 9.06724 2.52018 11.5648L14.2793 23.3239L1.87271 35.7305C-0.624237 38.2275 -0.624236 42.2758 1.87271 44.7728C4.36966 47.2697 8.41801 47.2697 10.915 44.7728L23.3215 32.3662L36.3757 45.4203C38.8733 47.9179 42.9227 47.9179 45.4202 45.4203C47.9178 42.9228 47.9178 38.8734 45.4202 36.3758L32.3661 23.3216L44.7728 10.915C47.2697 8.41801 47.2697 4.36966 44.7728 1.87271Z" fill="white"/>
</svg>
