<svg width="73" height="73" viewBox="0 0 73 73" fill="none" xmlns="http://www.w3.org/2000/svg">
<g filter="url(#filter0_d_1250_705)">
<path d="M32.205 49.45C30.285 49.45 28.635 48.94 27.255 47.92C25.875 46.87 24.825 45.4 24.105 43.51C23.385 41.59 23.025 39.355 23.025 36.805C23.025 32.605 23.88 29.425 25.59 27.265C27.3 25.075 29.58 23.98 32.43 23.98C33.6 23.98 34.62 24.145 35.49 24.475C36.39 24.775 37.17 25.195 37.83 25.735C38.49 26.275 39.06 26.89 39.54 27.58H39.72L40.305 24.43H45.975V41.215C45.975 42.235 46.155 42.925 46.515 43.285C46.905 43.645 47.34 43.825 47.82 43.825C48.03 43.825 48.27 43.795 48.54 43.735C48.81 43.675 49.005 43.63 49.125 43.6V48.865C48.975 48.955 48.72 49.045 48.36 49.135C48 49.225 47.61 49.3 47.19 49.36C46.8 49.42 46.44 49.45 46.11 49.45C44.61 49.45 43.395 49.18 42.465 48.64C41.535 48.1 40.815 47.14 40.305 45.76H39.855C39.405 46.42 38.82 47.035 38.1 47.605C37.38 48.175 36.525 48.625 35.535 48.955C34.545 49.285 33.435 49.45 32.205 49.45ZM34.68 44.185C35.91 44.185 36.885 43.93 37.605 43.42C38.355 42.91 38.895 42.13 39.225 41.08C39.555 40 39.72 38.65 39.72 37.03V36.76C39.72 34.36 39.345 32.545 38.595 31.315C37.875 30.055 36.54 29.425 34.59 29.425C33 29.425 31.815 30.055 31.035 31.315C30.255 32.575 29.865 34.42 29.865 36.85C29.865 39.25 30.255 41.08 31.035 42.34C31.815 43.57 33.03 44.185 34.68 44.185Z" fill="white"/>
</g>
<defs>
<filter id="filter0_d_1250_705" x="0.0250244" y="0.97998" width="72.1" height="71.47" filterUnits="userSpaceOnUse" color-interpolation-filters="sRGB">
<feFlood flood-opacity="0" result="BackgroundImageFix"/>
<feColorMatrix in="SourceAlpha" type="matrix" values="0 0 0 0 0 0 0 0 0 0 0 0 0 0 0 0 0 0 127 0" result="hardAlpha"/>
<feOffset/>
<feGaussianBlur stdDeviation="11.5"/>
<feComposite in2="hardAlpha" operator="out"/>
<feColorMatrix type="matrix" values="0 0 0 0 0 0 0 0 0 0 0 0 0 0 0 0 0 0 0.25 0"/>
<feBlend mode="normal" in2="BackgroundImageFix" result="effect1_dropShadow_1250_705"/>
<feBlend mode="normal" in="SourceGraphic" in2="effect1_dropShadow_1250_705" result="shape"/>
</filter>
</defs>
</svg>
