<svg width="67" height="87" viewBox="0 0 67 87" fill="none" xmlns="http://www.w3.org/2000/svg">
<g filter="url(#filter0_d_1250_711)">
<path d="M23.12 63.6V32.88C23.12 30.72 23.5067 28.9467 24.28 27.56C25.08 26.1467 26.2 25.1067 27.64 24.44C29.1067 23.7467 30.8267 23.4 32.8 23.4C34.72 23.4 36.36 23.6933 37.72 24.28C39.08 24.84 40.12 25.6933 40.84 26.84C41.5867 27.96 41.96 29.3733 41.96 31.08C41.96 32.36 41.7333 33.4667 41.28 34.4C40.8533 35.3333 40.24 36.08 39.44 36.64C38.6667 37.2 37.7333 37.5867 36.64 37.8V37.92C38.0267 38.1067 39.2267 38.4933 40.24 39.08C41.28 39.6667 42.08 40.4933 42.64 41.56C43.2267 42.6 43.52 43.9333 43.52 45.56C43.52 47.4267 43.0933 49.0267 42.24 50.36C41.4133 51.6667 40.2933 52.6667 38.88 53.36C37.4933 54.0533 35.9467 54.4 34.24 54.4C33.3867 54.4 32.68 54.3467 32.12 54.24C31.56 54.16 31.04 54.0267 30.56 53.84C30.1067 53.6533 29.6133 53.4267 29.08 53.16V63.6H23.12ZM33.12 49.64C34.4533 49.64 35.4933 49.24 36.24 48.44C36.9867 47.6133 37.36 46.48 37.36 45.04C37.36 43.9467 37.1333 43.0667 36.68 42.4C36.2533 41.7067 35.7067 41.2133 35.04 40.92C34.3733 40.6 33.68 40.44 32.96 40.44H31.16V35.96H32.6C33.32 35.96 33.9333 35.7867 34.44 35.44C34.9467 35.0667 35.3333 34.5733 35.6 33.96C35.8667 33.32 36 32.6 36 31.8C36 30.5467 35.68 29.6133 35.04 29C34.4 28.36 33.64 28.04 32.76 28.04C32.0133 28.04 31.36 28.2 30.8 28.52C30.24 28.84 29.8133 29.36 29.52 30.08C29.2267 30.7733 29.08 31.72 29.08 32.92V48.28C29.7467 48.7067 30.4 49.04 31.04 49.28C31.68 49.52 32.3733 49.64 33.12 49.64Z" fill="white"/>
</g>
<defs>
<filter id="filter0_d_1250_711" x="0.119995" y="0.400024" width="66.4" height="86.2" filterUnits="userSpaceOnUse" color-interpolation-filters="sRGB">
<feFlood flood-opacity="0" result="BackgroundImageFix"/>
<feColorMatrix in="SourceAlpha" type="matrix" values="0 0 0 0 0 0 0 0 0 0 0 0 0 0 0 0 0 0 127 0" result="hardAlpha"/>
<feOffset/>
<feGaussianBlur stdDeviation="11.5"/>
<feComposite in2="hardAlpha" operator="out"/>
<feColorMatrix type="matrix" values="0 0 0 0 0 0 0 0 0 0 0 0 0 0 0 0 0 0 0.25 0"/>
<feBlend mode="normal" in2="BackgroundImageFix" result="effect1_dropShadow_1250_711"/>
<feBlend mode="normal" in="SourceGraphic" in2="effect1_dropShadow_1250_711" result="shape"/>
</filter>
</defs>
</svg>
