<svg width="71" height="82" viewBox="0 0 71 82" fill="none" xmlns="http://www.w3.org/2000/svg">
<g filter="url(#filter0_d_1250_714)">
<path d="M35.365 58.45C33.085 58.45 31.06 58.03 29.29 57.19C27.52 56.35 26.125 55.15 25.105 53.59C24.085 52.03 23.575 50.155 23.575 47.965C23.575 45.925 23.935 44.215 24.655 42.835C25.405 41.455 26.365 40.33 27.535 39.46C28.705 38.56 29.935 37.855 31.225 37.345C30.475 36.925 29.77 36.415 29.11 35.815C28.48 35.215 27.97 34.495 27.58 33.655C27.22 32.815 27.04 31.84 27.04 30.73C27.04 29.26 27.445 28 28.255 26.95C29.095 25.87 30.235 25.045 31.675 24.475C33.145 23.875 34.825 23.575 36.715 23.575C38.005 23.575 39.235 23.695 40.405 23.935C41.575 24.145 42.67 24.505 43.69 25.015C44.71 25.495 45.625 26.14 46.435 26.95L43.915 31.45C42.865 30.43 41.74 29.68 40.54 29.2C39.34 28.69 38.17 28.435 37.03 28.435C36.16 28.435 35.455 28.57 34.915 28.84C34.405 29.08 34.045 29.395 33.835 29.785C33.625 30.175 33.52 30.565 33.52 30.955C33.52 31.585 33.715 32.125 34.105 32.575C34.525 33.025 35.095 33.445 35.815 33.835C36.535 34.225 37.39 34.675 38.38 35.185C40.57 36.295 42.325 37.45 43.645 38.65C44.965 39.85 45.91 41.155 46.48 42.565C47.08 43.945 47.38 45.49 47.38 47.2C47.38 49.72 46.885 51.82 45.895 53.5C44.905 55.15 43.51 56.395 41.71 57.235C39.91 58.045 37.795 58.45 35.365 58.45ZM35.545 53.05C36.625 53.05 37.54 52.795 38.29 52.285C39.07 51.775 39.655 51.07 40.045 50.17C40.435 49.27 40.63 48.25 40.63 47.11C40.63 46 40.435 45.01 40.045 44.14C39.655 43.27 39.085 42.505 38.335 41.845C37.615 41.155 36.76 40.57 35.77 40.09C34.93 40.39 34.165 40.765 33.475 41.215C32.815 41.665 32.245 42.175 31.765 42.745C31.315 43.315 30.955 43.975 30.685 44.725C30.445 45.475 30.325 46.315 30.325 47.245C30.325 48.445 30.535 49.48 30.955 50.35C31.375 51.22 31.975 51.895 32.755 52.375C33.565 52.825 34.495 53.05 35.545 53.05Z" fill="white"/>
</g>
<defs>
<filter id="filter0_d_1250_714" x="0.574951" y="0.574951" width="69.8051" height="80.8751" filterUnits="userSpaceOnUse" color-interpolation-filters="sRGB">
<feFlood flood-opacity="0" result="BackgroundImageFix"/>
<feColorMatrix in="SourceAlpha" type="matrix" values="0 0 0 0 0 0 0 0 0 0 0 0 0 0 0 0 0 0 127 0" result="hardAlpha"/>
<feOffset/>
<feGaussianBlur stdDeviation="11.5"/>
<feComposite in2="hardAlpha" operator="out"/>
<feColorMatrix type="matrix" values="0 0 0 0 0 0 0 0 0 0 0 0 0 0 0 0 0 0 0.25 0"/>
<feBlend mode="normal" in2="BackgroundImageFix" result="effect1_dropShadow_1250_714"/>
<feBlend mode="normal" in="SourceGraphic" in2="effect1_dropShadow_1250_714" result="shape"/>
</filter>
</defs>
</svg>
