<svg width="68" height="74" viewBox="0 0 68 74" fill="none" xmlns="http://www.w3.org/2000/svg">
<g filter="url(#filter0_d_1250_717)">
<path d="M35.296 50.48C31.456 50.48 28.56 49.776 26.608 48.368C24.656 46.96 23.68 45.088 23.68 42.752C23.68 41.472 23.92 40.416 24.4 39.584C24.88 38.72 25.552 38.048 26.416 37.568C27.28 37.056 28.304 36.688 29.488 36.464V36.224C27.952 35.84 26.8 35.168 26.032 34.208C25.296 33.248 24.928 32.064 24.928 30.656C24.928 29.184 25.296 27.904 26.032 26.816C26.8 25.696 27.952 24.832 29.488 24.224C31.024 23.616 32.96 23.312 35.296 23.312C36.96 23.312 38.64 23.488 40.336 23.84C42.032 24.16 43.488 24.688 44.704 25.424L42.736 30.464C41.424 29.76 40.224 29.28 39.136 29.024C38.08 28.736 36.976 28.592 35.824 28.592C34.384 28.592 33.328 28.848 32.656 29.36C31.984 29.84 31.648 30.544 31.648 31.472C31.648 32.4 31.984 33.072 32.656 33.488C33.36 33.872 34.4 34.064 35.776 34.064H39.664V39.2H35.824C34.64 39.2 33.696 39.312 32.992 39.536C32.288 39.728 31.776 40.048 31.456 40.496C31.136 40.912 30.976 41.456 30.976 42.128C30.976 43.184 31.408 43.952 32.272 44.432C33.168 44.912 34.464 45.152 36.16 45.152C37.632 45.152 38.944 44.992 40.096 44.672C41.28 44.32 42.544 43.728 43.888 42.896V48.512C42.736 49.184 41.504 49.68 40.192 50C38.88 50.32 37.248 50.48 35.296 50.48Z" fill="white"/>
</g>
<defs>
<filter id="filter0_d_1250_717" x="0.680054" y="0.312012" width="67.0239" height="73.168" filterUnits="userSpaceOnUse" color-interpolation-filters="sRGB">
<feFlood flood-opacity="0" result="BackgroundImageFix"/>
<feColorMatrix in="SourceAlpha" type="matrix" values="0 0 0 0 0 0 0 0 0 0 0 0 0 0 0 0 0 0 127 0" result="hardAlpha"/>
<feOffset/>
<feGaussianBlur stdDeviation="11.5"/>
<feComposite in2="hardAlpha" operator="out"/>
<feColorMatrix type="matrix" values="0 0 0 0 0 0 0 0 0 0 0 0 0 0 0 0 0 0 0.25 0"/>
<feBlend mode="normal" in2="BackgroundImageFix" result="effect1_dropShadow_1250_717"/>
<feBlend mode="normal" in="SourceGraphic" in2="effect1_dropShadow_1250_717" result="shape"/>
</filter>
</defs>
</svg>
