<svg width="72" height="82" viewBox="0 0 72 82" fill="none" xmlns="http://www.w3.org/2000/svg">
<g filter="url(#filter0_d_1250_729)">
<path d="M44.96 58.45C43.76 58.45 42.77 58.24 41.99 57.82C41.24 57.4 40.64 56.815 40.19 56.065C39.74 55.315 39.35 54.445 39.02 53.455L37.085 47.47C36.905 46.87 36.695 46.27 36.455 45.67C36.245 45.04 36.035 44.41 35.825 43.78C35.615 43.12 35.435 42.475 35.285 41.845C35.165 41.185 35.075 40.54 35.015 39.91H34.88C34.79 41.23 34.61 42.445 34.34 43.555C34.1 44.635 33.77 45.895 33.35 47.335L30.335 58H23L31.865 33.61L31.37 32.17C30.89 30.76 30.2 29.875 29.3 29.515C28.43 29.155 27.41 28.975 26.24 28.975C25.73 28.975 25.265 29.005 24.845 29.065C24.425 29.125 24.065 29.185 23.765 29.245V23.935C24.035 23.875 24.35 23.815 24.71 23.755C25.1 23.695 25.52 23.65 25.97 23.62C26.42 23.59 26.9 23.575 27.41 23.575C29.12 23.575 30.59 23.77 31.82 24.16C33.05 24.55 34.1 25.24 34.97 26.23C35.87 27.22 36.665 28.63 37.355 30.46L44.06 48.37C44.54 49.6 44.93 50.545 45.23 51.205C45.56 51.835 45.875 52.27 46.175 52.51C46.505 52.72 46.88 52.825 47.3 52.825C47.63 52.825 47.9 52.81 48.11 52.78C48.32 52.72 48.56 52.66 48.83 52.6V57.775C48.59 57.895 48.23 58 47.75 58.09C47.3 58.21 46.82 58.3 46.31 58.36C45.8 58.42 45.35 58.45 44.96 58.45Z" fill="white"/>
</g>
<defs>
<filter id="filter0_d_1250_729" x="0" y="0.575012" width="71.83" height="80.875" filterUnits="userSpaceOnUse" color-interpolation-filters="sRGB">
<feFlood flood-opacity="0" result="BackgroundImageFix"/>
<feColorMatrix in="SourceAlpha" type="matrix" values="0 0 0 0 0 0 0 0 0 0 0 0 0 0 0 0 0 0 127 0" result="hardAlpha"/>
<feOffset/>
<feGaussianBlur stdDeviation="11.5"/>
<feComposite in2="hardAlpha" operator="out"/>
<feColorMatrix type="matrix" values="0 0 0 0 0 0 0 0 0 0 0 0 0 0 0 0 0 0 0.25 0"/>
<feBlend mode="normal" in2="BackgroundImageFix" result="effect1_dropShadow_1250_729"/>
<feBlend mode="normal" in="SourceGraphic" in2="effect1_dropShadow_1250_729" result="shape"/>
</filter>
</defs>
</svg>
