<svg width="81" height="72" viewBox="0 0 81 72" fill="none" xmlns="http://www.w3.org/2000/svg">
<g filter="url(#filter0_d_1250_750)">
<path d="M33.375 48.45C31.185 48.45 29.355 47.925 27.885 46.875C26.415 45.825 25.305 44.37 24.555 42.51C23.835 40.62 23.475 38.475 23.475 36.075C23.475 33.075 23.88 30.525 24.69 28.425C25.53 26.325 26.55 24.66 27.75 23.43H33.735C32.985 24.24 32.295 25.245 31.665 26.445C31.065 27.645 30.57 29.04 30.18 30.63C29.82 32.19 29.64 33.93 29.64 35.85C29.64 38.04 29.97 39.825 30.63 41.205C31.32 42.555 32.415 43.23 33.915 43.23C34.815 43.23 35.52 43.02 36.03 42.6C36.54 42.15 36.9 41.52 37.11 40.71C37.32 39.9 37.425 38.91 37.425 37.74V31.26H43.59V37.74C43.59 38.91 43.695 39.9 43.905 40.71C44.115 41.52 44.475 42.15 44.985 42.6C45.495 43.02 46.2 43.23 47.1 43.23C48.12 43.23 48.93 42.93 49.53 42.33C50.16 41.7 50.625 40.83 50.925 39.72C51.225 38.61 51.375 37.35 51.375 35.94C51.375 34.08 51.21 32.385 50.88 30.855C50.55 29.295 50.085 27.9 49.485 26.67C48.885 25.41 48.15 24.33 47.28 23.43H53.265C54.165 24.36 54.93 25.44 55.56 26.67C56.22 27.9 56.715 29.295 57.045 30.855C57.375 32.385 57.54 34.125 57.54 36.075C57.54 38.475 57.165 40.62 56.415 42.51C55.695 44.37 54.6 45.825 53.13 46.875C51.66 47.925 49.83 48.45 47.64 48.45C45.72 48.45 44.205 48.015 43.095 47.145C42.015 46.275 41.19 45.015 40.62 43.365H40.395C40.035 44.445 39.54 45.375 38.91 46.155C38.31 46.905 37.56 47.475 36.66 47.865C35.76 48.255 34.665 48.45 33.375 48.45Z" fill="white"/>
</g>
<defs>
<filter id="filter0_d_1250_750" x="0.474976" y="0.429993" width="80.0651" height="71.02" filterUnits="userSpaceOnUse" color-interpolation-filters="sRGB">
<feFlood flood-opacity="0" result="BackgroundImageFix"/>
<feColorMatrix in="SourceAlpha" type="matrix" values="0 0 0 0 0 0 0 0 0 0 0 0 0 0 0 0 0 0 127 0" result="hardAlpha"/>
<feOffset/>
<feGaussianBlur stdDeviation="11.5"/>
<feComposite in2="hardAlpha" operator="out"/>
<feColorMatrix type="matrix" values="0 0 0 0 0 0 0 0 0 0 0 0 0 0 0 0 0 0 0.25 0"/>
<feBlend mode="normal" in2="BackgroundImageFix" result="effect1_dropShadow_1250_750"/>
<feBlend mode="normal" in="SourceGraphic" in2="effect1_dropShadow_1250_750" result="shape"/>
</filter>
</defs>
</svg>
