<svg width="100%" viewBox="0 0 76 89" fill="none" xmlns="http://www.w3.org/2000/svg">
<g filter="url(#filter0_d_1250_747)">
<path d="M34.658 65.08V55.378C32.334 55.294 30.304 54.902 28.568 54.202C26.86 53.474 25.53 52.298 24.578 50.674C23.626 49.05 23.15 46.838 23.15 44.038V32.068H28.946V44.206C28.946 45.774 29.114 47.006 29.45 47.902C29.786 48.798 30.36 49.442 31.172 49.834C32.012 50.226 33.174 50.478 34.658 50.59V23.08H40.454V50.548C41.938 50.408 43.128 50.1 44.024 49.624C44.92 49.12 45.564 48.35 45.956 47.314C46.348 46.278 46.544 44.892 46.544 43.156C46.544 41.924 46.474 40.706 46.334 39.502C46.194 38.298 45.998 37.08 45.746 35.848C45.522 34.616 45.242 33.356 44.906 32.068H50.702C51.262 34.028 51.668 35.918 51.92 37.738C52.172 39.53 52.298 41.35 52.298 43.198C52.298 46.054 51.78 48.364 50.744 50.128C49.736 51.864 48.336 53.138 46.544 53.95C44.78 54.762 42.75 55.238 40.454 55.378V65.08H34.658Z" fill="white"/>
</g>
<defs>
<filter id="filter0_d_1250_747" x="0.150024" y="0.0800171" width="75.1479" height="88" filterUnits="userSpaceOnUse" color-interpolation-filters="sRGB">
<feFlood flood-opacity="0" result="BackgroundImageFix"/>
<feColorMatrix in="SourceAlpha" type="matrix" values="0 0 0 0 0 0 0 0 0 0 0 0 0 0 0 0 0 0 127 0" result="hardAlpha"/>
<feOffset/>
<feGaussianBlur stdDeviation="11.5"/>
<feComposite in2="hardAlpha" operator="out"/>
<feColorMatrix type="matrix" values="0 0 0 0 0 0 0 0 0 0 0 0 0 0 0 0 0 0 0.25 0"/>
<feBlend mode="normal" in2="BackgroundImageFix" result="effect1_dropShadow_1250_747"/>
<feBlend mode="normal" in="SourceGraphic" in2="effect1_dropShadow_1250_747" result="shape"/>
</filter>
</defs>
</svg>
