<svg width="100%" viewBox="0 0 70 83" fill="none" xmlns="http://www.w3.org/2000/svg">
<g filter="url(#filter0_d_1250_741)">
<path d="M23.835 59.8V36.67C23.835 33.97 24.285 31.675 25.185 29.785C26.085 27.895 27.375 26.455 29.055 25.465C30.765 24.475 32.79 23.98 35.13 23.98C37.5 23.98 39.555 24.475 41.295 25.465C43.035 26.455 44.385 27.91 45.345 29.83C46.305 31.75 46.785 34.12 46.785 36.94C46.785 39.67 46.275 41.965 45.255 43.825C44.235 45.685 42.93 47.095 41.34 48.055C39.75 48.985 38.085 49.45 36.345 49.45C35.205 49.45 34.17 49.285 33.24 48.955C32.31 48.625 31.44 48.22 30.63 47.74H30.225C30.285 48.43 30.36 49.345 30.45 50.485C30.54 51.625 30.585 52.675 30.585 53.635V59.8H23.835ZM35.4 44.05C36.3 44.05 37.095 43.81 37.785 43.33C38.475 42.82 39 42.04 39.36 40.99C39.75 39.94 39.945 38.59 39.945 36.94C39.945 34.21 39.51 32.275 38.64 31.135C37.8 29.965 36.585 29.38 34.995 29.38C33.495 29.38 32.385 29.92 31.665 31C30.945 32.08 30.585 33.865 30.585 36.355V42.16C31.215 42.79 31.95 43.27 32.79 43.6C33.66 43.9 34.53 44.05 35.4 44.05Z" fill="white"/>
</g>
<defs>
<filter id="filter0_d_1250_741" x="0.834961" y="0.97998" width="68.9501" height="81.82" filterUnits="userSpaceOnUse" color-interpolation-filters="sRGB">
<feFlood flood-opacity="0" result="BackgroundImageFix"/>
<feColorMatrix in="SourceAlpha" type="matrix" values="0 0 0 0 0 0 0 0 0 0 0 0 0 0 0 0 0 0 127 0" result="hardAlpha"/>
<feOffset/>
<feGaussianBlur stdDeviation="11.5"/>
<feComposite in2="hardAlpha" operator="out"/>
<feColorMatrix type="matrix" values="0 0 0 0 0 0 0 0 0 0 0 0 0 0 0 0 0 0 0.25 0"/>
<feBlend mode="normal" in2="BackgroundImageFix" result="effect1_dropShadow_1250_741"/>
<feBlend mode="normal" in="SourceGraphic" in2="effect1_dropShadow_1250_741" result="shape"/>
</filter>
</defs>
</svg>
