<svg width="100%" viewBox="0 0 74 74" fill="none" xmlns="http://www.w3.org/2000/svg">
<g filter="url(#filter0_d_1250_744)">
<path d="M35.544 50.48C33.016 50.48 30.824 49.904 28.968 48.752C27.112 47.6 25.672 46.032 24.648 44.048C23.656 42.032 23.16 39.76 23.16 37.232C23.16 34 23.72 31.408 24.84 29.456C25.992 27.472 27.592 26.032 29.64 25.136C31.688 24.208 34.072 23.744 36.792 23.744H50.424V29.168H44.424C45.288 29.968 45.976 30.816 46.488 31.712C47.032 32.608 47.416 33.568 47.64 34.592C47.896 35.584 48.024 36.688 48.024 37.904C48.024 39.312 47.784 40.752 47.304 42.224C46.824 43.696 46.072 45.056 45.048 46.304C44.056 47.552 42.76 48.56 41.16 49.328C39.592 50.096 37.72 50.48 35.544 50.48ZM35.64 44.72C36.888 44.72 37.88 44.4 38.616 43.76C39.384 43.088 39.928 42.192 40.248 41.072C40.6 39.92 40.776 38.656 40.776 37.28C40.776 35.968 40.68 34.8 40.488 33.776C40.328 32.752 40.056 31.856 39.672 31.088C39.32 30.32 38.856 29.68 38.28 29.168H36.984C35.672 29.168 34.52 29.408 33.528 29.888C32.536 30.368 31.768 31.2 31.224 32.384C30.712 33.536 30.456 35.152 30.456 37.232C30.456 38.736 30.616 40.048 30.936 41.168C31.288 42.288 31.832 43.168 32.568 43.808C33.336 44.416 34.36 44.72 35.64 44.72Z" fill="white"/>
</g>
<defs>
<filter id="filter0_d_1250_744" x="0.160034" y="0.744019" width="73.2639" height="72.736" filterUnits="userSpaceOnUse" color-interpolation-filters="sRGB">
<feFlood flood-opacity="0" result="BackgroundImageFix"/>
<feColorMatrix in="SourceAlpha" type="matrix" values="0 0 0 0 0 0 0 0 0 0 0 0 0 0 0 0 0 0 127 0" result="hardAlpha"/>
<feOffset/>
<feGaussianBlur stdDeviation="11.5"/>
<feComposite in2="hardAlpha" operator="out"/>
<feColorMatrix type="matrix" values="0 0 0 0 0 0 0 0 0 0 0 0 0 0 0 0 0 0 0.25 0"/>
<feBlend mode="normal" in2="BackgroundImageFix" result="effect1_dropShadow_1250_744"/>
<feBlend mode="normal" in="SourceGraphic" in2="effect1_dropShadow_1250_744" result="shape"/>
</filter>
</defs>
</svg>
