<svg width="67" height="91" viewBox="0 0 67 91" fill="none" xmlns="http://www.w3.org/2000/svg">
<g filter="url(#filter0_d_1250_735)">
<path d="M34.455 67.09C35.085 65.95 35.58 64.9 35.94 63.94C36.33 63.01 36.525 62.17 36.525 61.42C36.525 60.76 36.405 60.25 36.165 59.89C35.955 59.56 35.55 59.275 34.95 59.035C34.35 58.795 33.495 58.54 32.385 58.27C30.525 57.82 28.89 57.205 27.48 56.425C26.07 55.645 24.975 54.64 24.195 53.41C23.415 52.18 23.025 50.65 23.025 48.82C23.025 47.35 23.265 46.06 23.745 44.95C24.225 43.81 24.96 42.85 25.95 42.07C26.94 41.29 28.185 40.675 29.685 40.225V40C28.515 39.76 27.54 39.4 26.76 38.92C25.98 38.41 25.395 37.78 25.005 37.03C24.615 36.28 24.42 35.41 24.42 34.42C24.42 33.34 24.645 32.44 25.095 31.72C25.545 30.97 26.235 30.34 27.165 29.83C28.095 29.32 29.295 28.9 30.765 28.57C30.075 28.6 29.325 28.645 28.515 28.705C27.705 28.735 26.97 28.765 26.31 28.795C25.68 28.825 25.23 28.84 24.96 28.84H24.465V23.8H43.23V28.57H41.565C39.945 28.57 38.49 28.63 37.2 28.75C35.91 28.87 34.8 29.095 33.87 29.425C32.94 29.755 32.235 30.265 31.755 30.955C31.275 31.615 31.035 32.485 31.035 33.565C31.035 34.405 31.215 35.14 31.575 35.77C31.935 36.37 32.565 36.85 33.465 37.21C34.365 37.54 35.595 37.705 37.155 37.705H42.06V42.745H37.11C35.43 42.745 34.05 42.925 32.97 43.285C31.89 43.645 31.095 44.215 30.585 44.995C30.105 45.745 29.865 46.72 29.865 47.92C29.865 49.21 30.12 50.17 30.63 50.8C31.14 51.43 31.86 51.88 32.79 52.15C33.72 52.42 34.815 52.69 36.075 52.96C38.025 53.35 39.495 53.86 40.485 54.49C41.475 55.12 42.15 55.84 42.51 56.65C42.87 57.46 43.05 58.315 43.05 59.215C43.05 60.115 42.975 60.985 42.825 61.825C42.675 62.695 42.435 63.55 42.105 64.39C41.775 65.26 41.34 66.16 40.8 67.09H34.455Z" fill="white"/>
</g>
<defs>
<filter id="filter0_d_1250_735" x="0.0250244" y="0.799988" width="66.205" height="89.29" filterUnits="userSpaceOnUse" color-interpolation-filters="sRGB">
<feFlood flood-opacity="0" result="BackgroundImageFix"/>
<feColorMatrix in="SourceAlpha" type="matrix" values="0 0 0 0 0 0 0 0 0 0 0 0 0 0 0 0 0 0 127 0" result="hardAlpha"/>
<feOffset/>
<feGaussianBlur stdDeviation="11.5"/>
<feComposite in2="hardAlpha" operator="out"/>
<feColorMatrix type="matrix" values="0 0 0 0 0 0 0 0 0 0 0 0 0 0 0 0 0 0 0.25 0"/>
<feBlend mode="normal" in2="BackgroundImageFix" result="effect1_dropShadow_1250_735"/>
<feBlend mode="normal" in="SourceGraphic" in2="effect1_dropShadow_1250_735" result="shape"/>
</filter>
</defs>
</svg>
